<svg xmlns="http://www.w3.org/2000/svg" viewBox="0 0 900 260" role="img" aria-labelledby="title desc">
  <title id="title">M.R.S. Medical Services</title>
  <desc id="desc">M.R.S. Medical Services logo with a teal heart, blood drop, and phlebotomy needle.</desc>
  <defs>
    <linearGradient id="heartGradient" x1="64" y1="30" x2="236" y2="218" gradientUnits="userSpaceOnUse">
      <stop stop-color="#128f8b"/>
      <stop offset="1" stop-color="#0d7774"/>
    </linearGradient>
    <linearGradient id="dropGradient" x1="151" y1="79" x2="151" y2="171" gradientUnits="userSpaceOnUse">
      <stop stop-color="#c4163a"/>
      <stop offset="1" stop-color="#9f102e"/>
    </linearGradient>
  </defs>

  <g fill="none" stroke-linecap="round" stroke-linejoin="round">
    <path d="M151 218C93 181 46 141 46 91c0-33 25-58 58-58 22 0 39 10 51 29 12-19 30-29 52-29 33 0 58 25 58 58 0 50-48 91-114 127Z"
      stroke="url(#heartGradient)" stroke-width="14"/>
    <path d="M151 196C105 165 71 133 71 94c0-22 16-38 38-38 18 0 32 11 42 31 10-20 24-31 42-31 22 0 38 16 38 38 0 39-34 71-80 102Z"
      stroke="#eef6f8" stroke-width="9"/>
    <path d="M85 200 247 70" stroke="#0b2945" stroke-width="8"/>
    <path d="M224 88 254 64" stroke="#128f8b" stroke-width="14"/>
    <path d="M78 206 55 224" stroke="#128f8b" stroke-width="14"/>
    <path d="M55 224 43 238" stroke="#0b2945" stroke-width="5"/>
  </g>

  <path d="M151 76c-19 31-39 57-39 86 0 27 17 45 39 45s39-18 39-45c0-29-20-55-39-86Z"
    fill="url(#dropGradient)"/>
  <path d="M162 143c11 25 2 43-19 53 8-16 10-31 5-48-3-10-7-21-12-32 12 8 20 17 26 27Z"
    fill="#ffffff" opacity=".82"/>

  <g fill="#0b2945">
    <text x="318" y="128" font-family="Arial, Helvetica, sans-serif" font-size="94" font-weight="800" letter-spacing="3">M.R.S.</text>
    <text x="322" y="184" font-family="Arial, Helvetica, sans-serif" font-size="36" font-weight="700" letter-spacing="2.8">MEDICAL SERVICES</text>
  </g>
</svg>
