<svg xmlns="http://www.w3.org/2000/svg" viewBox="0 0 760 220" role="img" aria-labelledby="title desc">
  <title id="title">M.R.S. Medical Services</title>
  <desc id="desc">Blue heart-shaped medical mark with a red blood drop and navy company lettering.</desc>
  <g fill="none" stroke="#17658d" stroke-linecap="round" stroke-linejoin="round">
    <path d="M92 184C25 129 32 36 104 29c35-4 58 16 73 42 16-26 39-46 74-42 72 7 79 100 12 155-28 23-58 40-86 57-28-17-58-34-85-57Z" stroke-width="15"/>
    <path d="M112 178C58 130 60 62 112 47c28-8 49 7 65 31 16-24 37-39 65-31 52 15 54 83 0 131-21 19-43 33-65 47-22-14-44-28-65-47Z" stroke-width="7"/>
  </g>
  <path d="M177 74c-15 25-34 48-34 76 0 24 15 42 34 42s34-18 34-42c0-28-19-51-34-76Z" fill="#b5122f"/>
  <path d="M177 96c-8 16-19 33-19 51 0 13 8 24 19 24s19-11 19-24c0-18-11-35-19-51Z" fill="#fff" opacity=".42"/>
  <g fill="#0a3154">
    <text x="305" y="114" font-family="Arial, Helvetica, sans-serif" font-size="82" font-weight="800" letter-spacing="4">M.R.S.</text>
    <text x="309" y="166" font-family="Arial, Helvetica, sans-serif" font-size="37" font-weight="700" letter-spacing="2">MEDICAL SERVICES</text>
  </g>
</svg>